<?xml version="1.0" standalone="no"?>
<!DOCTYPE svg PUBLIC "-//W3C//DTD SVG 1.1//EN" "http://www.w3.org/Graphics/SVG/1.1/DTD/svg11.dtd" >
<svg xmlns="http://www.w3.org/2000/svg">
<metadata></metadata>
<defs>
<font id="itc_avant_garde_gothic_proMd" horiz-adv-x="1136" >
<font-face units-per-em="2048" ascent="1516" descent="-532" />
<missing-glyph horiz-adv-x="604" />
<glyph unicode="&#xfb01;" horiz-adv-x="995" d="M43 940v195h100v55q0 178 136 264q66 42 121.5 52t154.5 10v-195q-199 0 -199 -131v-55h502v-1135h-213v940h-289v-940h-213v940h-100zM645 1266v250h213v-250h-213z" />
<glyph unicode="&#xfb02;" horiz-adv-x="995" d="M43 940v195h100v55q0 178 136 264q66 42 121.5 52t154.5 10v-195q-199 0 -199 -131v-55h289v381h213v-1516h-213v940h-289v-940h-213v940h-100z" />
<glyph unicode="&#xfb03;" horiz-adv-x="1497" d="M43 940v195h100v55q0 152 100 239t259 87h53v-195h-6q-85 0 -139 -31t-54 -100v-55h289v55q0 152 100 239t259 87h53v-195h-6q-85 0 -139 -31t-54 -100v-55h502v-1135h-213v940h-289v-940h-213v940h-289v-940h-213v940h-100zM1147 1266v250h213v-250h-213z" />
<glyph unicode="&#xfb04;" horiz-adv-x="1497" d="M43 940v195h100v55q0 152 100 239t259 87h53v-195h-6q-85 0 -139 -31t-54 -100v-55h289v55q0 152 100 239t259 87h53v-195h-6q-85 0 -139 -31t-54 -100v-55h289v381h213v-1516h-213v940h-289v-940h-213v940h-289v-940h-213v940h-100z" />
<glyph horiz-adv-x="2048" />
<glyph horiz-adv-x="2048" />
<glyph unicode="&#xd;" horiz-adv-x="2048" />
<glyph unicode=" "  horiz-adv-x="604" />
<glyph unicode="&#x09;" horiz-adv-x="604" />
<glyph unicode="&#xa0;" horiz-adv-x="604" />
<glyph unicode="!" horiz-adv-x="567" d="M178 0v250h213v-250h-213zM178 373v1143h213v-1143h-213z" />
<glyph unicode="&#x22;" horiz-adv-x="665" d="M41 1516h225l-41 -607h-145zM401 1516h226l-41 -607h-146z" />
<glyph unicode="#" d="M61 418l5 172h206l35 254h-184l4 172h205l57 418h182l-57 -418h209l57 418h183l-58 -418h168l-4 -172h-188l-35 -254h166l-4 -172h-187l-59 -418h-180l57 418h-209l-59 -418h-181l58 418h-187zM455 590h209l34 254h-209z" />
<glyph unicode="$" d="M139 471h213q9 -104 68 -166.5t160 -62.5q97 0 150.5 65.5t53.5 165.5q0 46 -16 83t-38 60t-61 42.5t-69 29.5t-78 23q-78 22 -134 50t-100.5 70.5t-66.5 105t-22 144.5q0 136 75 239t205 136v230h195v-230q141 -17 219.5 -113.5t83.5 -240.5h-213q-6 83 -52 127.5 t-128 44.5q-78 0 -125 -57t-47 -136q0 -40 13 -70.5t32 -49t50.5 -33.5t58 -23t65.5 -18l24 -6q342 -90 342 -406q0 -162 -83.5 -276.5t-239.5 -139.5v-227h-195v227q-157 40 -244 145t-96 267z" />
<glyph unicode="%" horiz-adv-x="1714" d="M106 1171q0 152 109 259.5t262 107.5t262 -107.5t109 -259.5t-109 -259t-262 -107t-262 107t-109 259zM291 1171q0 -78 54 -134t132 -56t132.5 56t54.5 134t-54.5 134.5t-132.5 56.5t-132 -56.5t-54 -134.5zM346 0l868 1516h138l-869 -1516h-137zM864 340 q0 152 109 259.5t262 107.5t262 -107.5t109 -259.5t-109 -259.5t-262 -107.5t-262 107.5t-109 259.5zM1049 340q0 -78 54 -134t132 -56t132 56t54 134t-54 134t-132 56t-132 -56t-54 -134z" />
<glyph unicode="&#x26;" horiz-adv-x="1400" d="M70 424q0 146 77 258.5t213 173.5q-74 76 -109.5 143t-35.5 158q0 164 109.5 275.5t273.5 111.5q160 0 268.5 -112t108.5 -273q0 -240 -254 -364l201 -197l165 334h240l-248 -500l305 -311l-147 -150l-264 267q-176 -267 -441 -267q-193 0 -327.5 130.5t-134.5 322.5z M291 424q0 -107 67.5 -178.5t173.5 -71.5q180 0 293 217l-319 316q-101 -35 -158 -107t-57 -176zM436 1157q0 -42 21.5 -84.5t45 -68t62.5 -62.5q37 20 57.5 31.5t49.5 33.5t44 42.5t26.5 50.5t11.5 65q0 72 -44 124t-114 52q-73 0 -116.5 -54.5t-43.5 -129.5z" />
<glyph unicode="'" horiz-adv-x="446" d="M111 1516h225l-41 -607h-143z" />
<glyph unicode="(" horiz-adv-x="833" d="M113 518q0 205 74.5 405t213 364t318.5 259v-264q-197 -173 -291 -346.5t-94 -415.5q0 -249 98 -434t299 -346v-266q-113 58 -231 164q-186 173 -286.5 400.5t-100.5 479.5z" />
<glyph unicode=")" horiz-adv-x="833" d="M102 1280v266q186 -96 327.5 -262.5t216.5 -369.5t75 -412q0 -205 -74.5 -405t-213 -364t-318.5 -259v264q98 86 165 163.5t119 169.5t76.5 197.5t24.5 231.5q0 248 -98.5 432.5t-299.5 347.5z" />
<glyph unicode="*" horiz-adv-x="1173" d="M197 1180l45 135l278 -94l-2 295h144l-7 -295l279 94l45 -135l-283 -88l178 -236l-116 -84l-170 242l-170 -242l-117 84l178 236z" />
<glyph unicode="+" horiz-adv-x="1228" d="M98 412v213h410v411h213v-411h409v-213h-409v-412h-213v412h-410z" />
<glyph unicode="," horiz-adv-x="567" d="M178 0v250h213v-227q0 -118 -50 -189.5t-163 -93.5v127q48 18 62 46.5t14 86.5h-76z" />
<glyph unicode="-" horiz-adv-x="573" d="M0 485v213h573v-213h-573z" />
<glyph unicode="." horiz-adv-x="567" d="M178 0v250h213v-250h-213z" />
<glyph unicode="/" horiz-adv-x="1021" d="M84 -205l590 1721h233l-590 -1721h-233z" />
<glyph unicode="0" d="M78 504v528q0 165 76 289t225 186q95 39 194 39q138 0 250 -67t174 -181t62 -251v-560q0 -111 -23 -188t-88 -154q-69 -83 -170.5 -128.5t-212.5 -45.5t-212.5 49t-170.5 136q-61 78 -82.5 158t-21.5 190zM291 487q0 -141 73 -231t209 -90q122 0 205 96q44 50 56 97 t12 124v564q0 134 -72 219.5t-203 85.5t-205.5 -85t-74.5 -220v-560z" />
<glyph unicode="1" d="M303 1321v195h436v-1516h-213v1321h-223z" />
<glyph unicode="2" d="M76 995v9q-2 176 72 309.5t229 195.5q84 35 174 35q134 0 244.5 -65.5t172.5 -177.5t62 -246q0 -128 -52 -223t-159 -205l-422 -432h635v-195h-948v178l596 606q66 66 101.5 131.5t35.5 145.5q0 117 -72 203t-186 86q-127 0 -198.5 -92.5t-71.5 -223.5v-39h-213z" />
<glyph unicode="3" d="M45 446h213q6 -126 83 -203t200 -77q113 0 192.5 82.5t79.5 195.5q0 118 -82 195.5t-201 77.5h-77v213h73q98 0 160 57.5t62 153.5q0 87 -58 148t-145 61q-91 0 -142 -59t-61 -154h-213q8 136 75.5 234.5t192.5 144.5q86 28 154 28q180 0 295 -119.5t115 -300.5 q0 -97 -32 -161.5t-108 -133.5q98 -63 151.5 -161t53.5 -215q0 -214 -138.5 -348t-352.5 -134q-131 0 -243.5 62.5t-179 172t-67.5 240.5z" />
<glyph unicode="4" d="M25 238v206l692 1072h213v-1084h160v-194h-160v-238h-213v238h-692zM270 432h447v729h-4z" />
<glyph unicode="5" d="M51 459h213q25 -129 103 -211t202 -82q128 0 215.5 101t87.5 231q0 89 -33 168t-101.5 132.5t-159.5 53.5q-179 0 -273 -158l-184 43l127 779h692v-195h-516l-57 -336q87 62 211 62q148 0 264.5 -71.5t179.5 -192.5t63 -269q0 -147 -65.5 -271t-185 -198t-267.5 -74 q-213 0 -353.5 136.5t-162.5 351.5z" />
<glyph unicode="6" d="M51 487q0 186 115 363l426 666h252l-322 -498q52 10 90 10q139 0 251.5 -69.5t174.5 -186.5t62 -256q0 -148 -66.5 -272.5t-187 -198.5t-268.5 -74q-159 0 -284.5 81t-191.5 224q-51 109 -51 211zM264 508q0 -139 88.5 -240.5t225.5 -101.5q130 0 219.5 98t89.5 230 q0 89 -36.5 166t-107.5 125.5t-161 48.5q-132 0 -225 -97t-93 -229z" />
<glyph unicode="7" d="M145 1321v195h879v-195l-555 -1321h-238l572 1321h-658z" />
<glyph unicode="8" d="M88 446q0 243 199 390q-68 67 -98.5 132.5t-30.5 157.5q0 172 121 295t292 123q111 0 205.5 -57t148.5 -153t54 -206q0 -97 -31 -162.5t-104 -129.5q98 -66 150.5 -165t52.5 -218q0 -130 -64.5 -241t-175 -176t-240.5 -65t-240 62.5t-174.5 172t-64.5 240.5zM301 436 q0 -110 77.5 -190t186.5 -80t189 79.5t80 188.5q0 115 -77 199t-190 84q-112 0 -189 -84t-77 -197zM371 1141q0 -85 56.5 -146t139.5 -61q91 0 145 61.5t54 153.5q0 82 -57 141.5t-140 59.5q-85 0 -141.5 -62t-56.5 -147z" />
<glyph unicode="9" d="M37 1001q0 146 66.5 270t186.5 198.5t267 74.5q161 0 285 -80t192 -227q49 -106 49 -207q0 -183 -116 -364l-422 -666h-252l321 498q-65 -9 -88 -9q-139 0 -252 69.5t-175 186.5t-62 256zM250 1022q0 -134 88 -236t219 -102q129 0 221 97.5t92 226.5q0 90 -38 167.5 t-110 126t-163 48.5q-131 0 -220 -98t-89 -230z" />
<glyph unicode=":" horiz-adv-x="567" d="M178 0v250h213v-250h-213zM178 887v250h213v-250h-213z" />
<glyph unicode=";" horiz-adv-x="567" d="M178 0v250h213v-227q0 -118 -50 -189.5t-163 -93.5v127q48 18 62 46.5t14 86.5h-76zM178 887v250h213v-250h-213z" />
<glyph unicode="&#x3c;" horiz-adv-x="1228" d="M94 430v176l1041 447v-209l-764 -326l764 -325v-209z" />
<glyph unicode="=" horiz-adv-x="1228" d="M98 188v213h1032v-213h-1032zM98 635v213h1032v-213h-1032z" />
<glyph unicode="&#x3e;" horiz-adv-x="1228" d="M94 -16v209l764 325l-764 326v209l1041 -447v-176z" />
<glyph unicode="?" horiz-adv-x="1060" d="M66 1083q6 150 79.5 262t208.5 166q91 33 172 33q123 0 227.5 -62.5t165 -168.5t60.5 -228q0 -64 -10.5 -112.5t-37 -91.5t-55 -74.5t-79.5 -79.5q-90 -84 -125.5 -152t-50.5 -186h-213q3 138 55.5 243t157.5 212l33.5 33.5t35 35.5t28.5 34t26 40t15 41t7 49 q0 103 -69.5 177.5t-172.5 74.5q-61 0 -114.5 -29.5t-87.5 -80.5q-33 -52 -43 -136h-213zM408 0v250h213v-250h-213z" />
<glyph unicode="@" horiz-adv-x="1556" d="M23 741q0 232 103.5 415t288 284.5t416.5 101.5q201 0 360 -81t251 -235.5t92 -357.5q0 -88 -24 -180.5t-70 -176.5t-124 -138t-173 -54q-63 0 -113 32.5t-61 90.5h-4q-90 -123 -273 -123q-99 0 -173.5 53.5t-110 136t-35.5 179.5q0 86 28.5 168.5t78.5 148t126.5 106 t165.5 40.5q90 0 152 -33t102 -108h4l21 112h151l-86 -473q-16 -104 -16 -121q0 -22 14.5 -37.5t36.5 -15.5q52 0 93 30t64 73.5t37.5 101.5t19.5 106.5t5 94.5q0 119 -43 216t-118.5 159.5t-176 96t-217.5 33.5q-275 0 -452 -177.5t-177 -452.5q0 -294 177 -460.5 t475 -166.5q131 0 265 29.5t222 93.5l80 -125q-280 -154 -567 -154q-125 0 -236.5 26t-209.5 78.5t-176.5 138t-127.5 198.5q-65 147 -65 327zM537 692q0 -91 45.5 -154t132.5 -63q90 0 152.5 49t90 122t27.5 161q0 95 -53 141.5t-150 46.5q-76 0 -133.5 -46.5t-84.5 -114.5 t-27 -142z" />
<glyph unicode="A" horiz-adv-x="1400" d="M27 0l575 1516h199l575 -1516h-235l-168 446h-545l-168 -446h-233zM506 649h391l-192 580h-5z" />
<glyph unicode="B" horiz-adv-x="1187" d="M154 0v1516h393q75 0 140.5 -13.5t124.5 -42.5t104.5 -79.5t72.5 -118.5q31 -82 31 -166q0 -92 -32.5 -159t-102.5 -128q225 -129 225 -369q0 -98 -37 -182q-40 -93 -115 -152t-161.5 -82.5t-190.5 -23.5h-452zM375 203h239q114 0 194.5 63t80.5 174q0 84 -53 150 q-43 57 -101 74.5t-147 17.5h-213v-479zM375 885h180q113 0 178.5 52t65.5 161q0 114 -70 164.5t-186 50.5h-168v-428z" />
<glyph unicode="C" horiz-adv-x="1601" d="M78 764q0 160 61.5 304.5t166 248.5t249 165.5t303.5 61.5q122 0 243.5 -38.5t219.5 -108.5q77 -55 130.5 -118t102.5 -151h-266q-184 213 -426 213q-156 0 -286 -78.5t-203.5 -211.5t-73.5 -289q0 -152 73 -287t203 -218t283 -83q118 0 227 54t187 147h272 q-108 -190 -289.5 -297t-398.5 -107q-212 0 -391.5 108.5t-283 291t-103.5 393.5z" />
<glyph unicode="D" horiz-adv-x="1499" d="M133 0v1516h492q421 0 618 -279q74 -103 115 -229.5t41 -253.5q0 -142 -50.5 -293.5t-140.5 -241.5q-119 -118 -265.5 -168.5t-326.5 -50.5h-483zM354 203h264q260 0 410 145.5t150 405.5q0 116 -45 231q-66 161 -199 244.5t-311 83.5h-269v-1110z" />
<glyph unicode="E" horiz-adv-x="1064" d="M133 0v1516h817v-203h-596v-447h596v-202h-596v-461h596v-203h-817z" />
<glyph unicode="F" horiz-adv-x="987" d="M133 0v1516h766v-203h-545v-455h545v-203h-545v-655h-221z" />
<glyph unicode="G" horiz-adv-x="1701" d="M78 754q0 160 60 306t162.5 252t246.5 169t305 63q213 0 395.5 -110.5t284.5 -298.5h-258q-90 101 -189.5 153.5t-224.5 52.5q-155 0 -285 -81.5t-203 -216.5t-73 -289q0 -113 44.5 -219.5t119.5 -186t179.5 -127t219.5 -47.5q178 0 317 103t205 274h-706v203h958 q-3 -236 -121 -424t-331 -285q-161 -74 -330 -74q-160 0 -304 62t-247.5 167t-164 250t-60.5 304z" />
<glyph unicode="H" horiz-adv-x="1372" d="M154 0v1516h221v-654h624v654h222v-1516h-222v659h-624v-659h-221z" />
<glyph unicode="I" horiz-adv-x="526" d="M154 0v1516h221v-1516h-221z" />
<glyph unicode="J" horiz-adv-x="997" d="M0 303h227q49 -129 193 -129q99 0 146.5 68.5t47.5 173.5v1100h222v-1088q0 -125 -37 -215q-49 -116 -150.5 -179t-230.5 -63q-152 0 -271.5 92t-146.5 240z" />
<glyph unicode="K" horiz-adv-x="1265" d="M184 0v1516h222v-1516h-222zM410 764l575 752h272l-591 -752l591 -764h-272z" />
<glyph unicode="L" horiz-adv-x="909" d="M162 0v1516h221v-1313h526v-203h-747z" />
<glyph unicode="M" horiz-adv-x="1912" d="M154 0v1516h348l454 -1162l457 1162h348v-1516h-221v1280h-6l-510 -1280h-133l-512 1280h-4v-1280h-221z" />
<glyph unicode="N" horiz-adv-x="1511" d="M154 0v1516h241l738 -1154h4v1154h221v-1516h-230l-749 1171h-4v-1171h-221z" />
<glyph unicode="O" horiz-adv-x="1732" d="M78 758q0 215 105.5 396t286.5 285.5t396 104.5q217 0 398.5 -105t286 -286.5t104.5 -398.5q0 -212 -106.5 -392.5t-288 -285.5t-394.5 -105q-160 0 -306 62.5t-251.5 168t-168 251t-62.5 305.5zM299 758q0 -121 53 -246q71 -160 205.5 -249t308.5 -89q186 0 325 100 t204 275q39 98 39 203q0 160 -72.5 294.5t-203.5 214.5t-292 80q-176 0 -310.5 -90t-203.5 -252q-53 -122 -53 -241z" />
<glyph unicode="P" horiz-adv-x="1144" d="M133 0v1516h438q91 0 170.5 -16.5t147 -52t115.5 -88.5t75 -130t27 -172t-27 -172t-75 -130t-115.5 -88.5t-147 -52t-170.5 -16.5h-217v-598h-221zM354 801h217q65 0 120 14t99.5 43.5t69.5 80.5t25 118t-25 118t-69.5 80.5t-99.5 43.5t-120 14h-217v-512z" />
<glyph unicode="Q" horiz-adv-x="1714" d="M78 762q0 162 60.5 306.5t164 249t248.5 165.5t307 61q161 0 305.5 -62t248.5 -167.5t165 -251t61 -305.5q0 -149 -46.5 -275.5t-139.5 -253.5q54 -31 104 -43q42 -10 96 -10h19v-205q-112 1 -198.5 28.5t-182.5 88.5q-210 -117 -434 -117q-160 0 -305 63.5t-248 170 t-164 252t-61 305.5zM299 748q0 -66 20 -148q117 47 289 47q316 0 664 -285q74 92 109.5 186t35.5 210q0 152 -72 286t-201 215.5t-282 81.5q-159 0 -289 -82.5t-202 -218t-72 -292.5zM412 410q79 -110 198.5 -173t253.5 -63t230 68q-130 97 -250.5 149.5t-255.5 52.5 q-107 0 -176 -34z" />
<glyph unicode="R" horiz-adv-x="1216" d="M133 0v1516h469q275 0 404 -127q69 -66 104 -161t35 -198q0 -158 -71.5 -271.5t-215.5 -164.5q-82 -29 -147 -29l424 -565h-277l-500 702h-4v-702h-221zM354 733h152q64 0 119.5 7.5t112 27.5t96.5 52.5t65 86t25 123.5q0 137 -97 210t-239 73h-234v-580z" />
<glyph unicode="S" horiz-adv-x="1021" d="M37 449h221q0 -116 65.5 -195.5t180.5 -79.5q112 0 178 71.5t66 184.5q0 55 -15.5 94.5t-56 68.5t-65.5 41t-90 37q-11 5 -17 7q-173 66 -239 107q-133 81 -169 215q-16 59 -16 133q0 175 124.5 293t299.5 118q191 0 312.5 -116t121.5 -306h-221q0 99 -57.5 159 t-155.5 60q-83 0 -143 -61t-60 -145q0 -51 23 -89.5t61.5 -63.5t88.5 -45t105.5 -39.5t111 -42.5t105.5 -58.5t88.5 -82.5t61.5 -119.5t23 -164.5q0 -203 -131 -331t-334 -128q-206 0 -336.5 135.5t-130.5 342.5z" />
<glyph unicode="T" horiz-adv-x="833" d="M14 1313v203h803v-203h-291v-1313h-221v1313h-291z" />
<glyph unicode="U" horiz-adv-x="1316" d="M150 489v1027h221v-1020q0 -141 75 -231.5t211 -90.5t211.5 90.5t75.5 231.5v1020h221v-1027q0 -254 -153 -389q-71 -63 -163.5 -96t-191.5 -33q-210 0 -354 129q-153 135 -153 389z" />
<glyph unicode="V" horiz-adv-x="1400" d="M25 1516h237l440 -1137l441 1137h233l-608 -1516h-133z" />
<glyph unicode="W" horiz-adv-x="1855" d="M33 1516h229l289 -1141h4l293 1141h162l288 -1133h5l294 1133h226l-424 -1516h-195l-274 1059h-4l-275 -1059h-194z" />
<glyph unicode="X" horiz-adv-x="1327" d="M23 0l501 760l-501 756h264l375 -574l378 574h263l-506 -756l501 -760h-260l-376 578l-381 -578h-258z" />
<glyph unicode="Y" horiz-adv-x="1214" d="M27 1516h247l334 -711l332 711h246l-467 -969v-547h-221v547z" />
<glyph unicode="Z" horiz-adv-x="946" d="M8 0v203l658 1110h-623v203h870v-203l-653 -1110h680v-203h-932z" />
<glyph unicode="[" horiz-adv-x="833" d="M256 29v927q0 206 111.5 360.5t306.5 229.5v-248q-106 -67 -152.5 -152.5t-46.5 -211.5v-830q0 -135 43 -222.5t156 -155.5v-252q-177 69 -297.5 221t-120.5 334z" />
<glyph unicode="\" horiz-adv-x="1021" d="M115 1516h233l590 -1721h-233z" />
<glyph unicode="]" horiz-adv-x="833" d="M160 -274q112 68 155 155t43 223v830q0 126 -46 211.5t-152 152.5v248q195 -75 306.5 -229.5t111.5 -360.5v-927q0 -182 -120.5 -334t-297.5 -221v252z" />
<glyph unicode="^" horiz-adv-x="1228" d="M135 727l383 789h193l383 -789h-213l-267 573l-266 -573h-213z" />
<glyph unicode="_" horiz-adv-x="1024" d="M0 -154h1024v-102h-1024v102z" />
<glyph unicode="`" d="M270 1477l90 163l457 -262l-86 -153z" />
<glyph unicode="a" horiz-adv-x="1419" d="M78 563q0 127 46 239t125.5 191.5t191.5 125.5t239 46q119 0 221.5 -48.5t163.5 -141.5h4v160h213v-1135h-213v176h-4q-58 -100 -161 -152.5t-224 -52.5q-168 0 -306 76t-217 212t-79 304zM291 565q0 -162 113 -280.5t274 -118.5q165 0 280 117t115 282q0 172 -111 289 t-282 117q-166 0 -277.5 -119t-111.5 -287z" />
<glyph unicode="b" horiz-adv-x="1409" d="M137 0v1516h213v-539h4q67 93 168.5 140.5t220.5 47.5q161 0 296.5 -81.5t213.5 -219t78 -297.5q0 -162 -76 -299t-210 -217t-297 -80q-117 0 -222.5 51t-173.5 142h-4v-164h-211zM344 571q0 -168 110.5 -286.5t276.5 -118.5q106 0 195.5 55.5t140.5 148t51 197.5 q0 164 -112 284t-275 120q-162 0 -274.5 -118.5t-112.5 -281.5z" />
<glyph unicode="c" horiz-adv-x="1284" d="M78 569q0 164 75 300.5t209.5 216t299.5 79.5q122 0 237.5 -50t202 -144t117.5 -213h-236q-101 213 -319 213q-170 0 -271.5 -115t-101.5 -287q0 -167 101.5 -285t266.5 -118q108 0 193 55t129 154h238q-63 -184 -214.5 -294t-345.5 -110q-166 0 -299.5 80t-207.5 216.5 t-74 301.5z" />
<glyph unicode="d" horiz-adv-x="1406" d="M78 563q0 168 75 305.5t210.5 217t304.5 79.5q112 0 216 -43.5t169 -126.5h4v521h213v-1516h-197v162h-4q-68 -95 -173 -143t-228 -48q-254 0 -422 169t-168 423zM291 565q0 -162 113 -280.5t274 -118.5q165 0 280 117t115 282q0 172 -111 289t-282 117 q-166 0 -277.5 -119t-111.5 -287z" />
<glyph unicode="e" horiz-adv-x="1314" d="M80 569q0 121 44.5 231t121.5 190t185.5 127.5t230.5 47.5q118 0 225.5 -46.5t184 -125t122 -186t45.5 -225.5q0 -54 -6 -107h-940q33 -135 134.5 -222t238.5 -87q101 0 189.5 51t133.5 139h213q-65 -174 -212.5 -279.5t-332.5 -105.5q-158 0 -291.5 83t-209.5 220.5 t-76 294.5zM293 639h733q-9 138 -118 235t-249 97t-248.5 -97t-117.5 -235z" />
<glyph unicode="f" horiz-adv-x="567" d="M43 940v195h100v55q0 178 136 264q66 42 121.5 52t154.5 10v-195q-199 0 -199 -131v-55h199v-195h-199v-940h-213v940h-100z" />
<glyph unicode="g" horiz-adv-x="1427" d="M78 571q0 132 61 254q78 162 222.5 251t326.5 89q109 0 216 -42t175 -119v131h213v-981q0 -285 -164.5 -442.5t-449.5 -157.5q-188 0 -336.5 94t-222.5 264h237q115 -164 324 -164q194 0 296.5 103.5t102.5 298.5h-4q-65 -90 -168.5 -134.5t-222.5 -44.5q-160 0 -300 81 t-223 219.5t-83 299.5zM291 567q0 -163 115 -282t276 -119q123 0 216.5 64t143.5 178q37 79 37 157q0 133 -62 231t-183 144q-81 31 -150 31q-164 0 -278.5 -119t-114.5 -285z" />
<glyph unicode="h" horiz-adv-x="1273" d="M135 0v1516h213v-502h4q101 151 318 151q126 0 231.5 -50.5t169.5 -151.5q72 -113 72 -291v-672h-213v616q0 77 -13 137.5t-43.5 111.5t-88 78.5t-138.5 27.5q-76 0 -134.5 -28t-94 -77.5t-53 -112t-17.5 -135.5v-618h-213z" />
<glyph unicode="i" horiz-adv-x="487" d="M137 0v1135h213v-1135h-213zM137 1266v250h213v-250h-213z" />
<glyph unicode="j" horiz-adv-x="509" d="M23 -223q26 2 47 8.5t35.5 16.5t25 24t16.5 30t10 34.5t5 38.5t2 40.5t0 41.5v22v1102h213v-1129q0 -55 -1 -84.5t-7.5 -72.5t-18.5 -71.5t-35.5 -62t-58.5 -63.5q-49 -42 -111.5 -70t-121.5 -28v223zM164 1266v250h213v-250h-213z" />
<glyph unicode="k" horiz-adv-x="1118" d="M158 0v1516h213v-1516h-213zM375 588l403 547h252l-412 -535l478 -600h-267z" />
<glyph unicode="l" horiz-adv-x="487" d="M137 0v1516h213v-1516h-213z" />
<glyph unicode="m" horiz-adv-x="1988" d="M137 0v1135h197v-123h4q71 84 143 118.5t183 34.5q108 0 209 -50t143 -140q64 101 155 145.5t220 44.5q222 0 342 -128.5t120 -352.5v-684h-213v631q0 71 -13 129t-42 107t-83.5 76.5t-129.5 27.5q-64 0 -112.5 -17.5t-78 -47.5t-48 -74.5t-25 -91.5t-6.5 -107v-633h-213 v631q0 56 -1.5 84.5t-12.5 70.5t-33 78q-69 107 -211 107q-80 0 -136 -25.5t-87 -73t-44.5 -106t-13.5 -133.5v-633h-213z" />
<glyph unicode="n" horiz-adv-x="1277" d="M135 0v1135h199v-121h4q114 151 332 151q126 0 231.5 -50.5t169.5 -151.5q72 -113 72 -291v-672h-213v616q0 77 -13 137.5t-43.5 111.5t-88 78.5t-138.5 27.5q-76 0 -134.5 -28t-94 -77.5t-53 -112t-17.5 -135.5v-618h-213z" />
<glyph unicode="o" horiz-adv-x="1382" d="M78 575q0 163 84.5 299.5t224.5 213.5t303 77q123 0 235.5 -46t195.5 -124.5t132.5 -189.5t49.5 -234q0 -120 -48 -230.5t-129 -191.5t-195.5 -129.5t-240.5 -48.5q-165 0 -305.5 80t-223.5 219.5t-83 304.5zM291 569q0 -166 117 -284.5t282 -118.5q166 0 283 119 t117 286q0 166 -117 283t-283 117q-165 0 -282 -118t-117 -284z" />
<glyph unicode="p" horiz-adv-x="1404" d="M137 -379v1514h195v-174h4q69 100 174.5 152t228.5 52q171 0 306.5 -81.5t208.5 -221t73 -309.5q0 -159 -74.5 -292.5t-206.5 -211.5t-292 -78q-123 0 -232.5 48.5t-167.5 144.5h-4v-543h-213zM346 569q0 -167 109.5 -285t275.5 -118q165 0 274 117t109 282 q0 107 -51 200t-141 149.5t-197 56.5q-161 0 -270 -119.5t-109 -282.5z" />
<glyph unicode="q" horiz-adv-x="1406" d="M80 569q0 164 76.5 300.5t212 216t299.5 79.5q213 0 358 -133q27 -23 43 -49h4v152h197v-1514h-213v537h-4q-62 -89 -164.5 -138t-214.5 -49q-165 0 -301.5 79.5t-214.5 216.5t-78 302zM293 569q0 -169 112 -286t281 -117q163 0 276 116.5t113 280.5q0 171 -111.5 289.5 t-281.5 118.5q-168 0 -278.5 -116.5t-110.5 -285.5z" />
<glyph unicode="r" horiz-adv-x="655" d="M137 0v1135h199v-103h4q90 126 289 133v-219q-35 0 -79 -12t-75 -29q-68 -35 -96.5 -113.5t-28.5 -170.5v-621h-213z" />
<glyph unicode="s" horiz-adv-x="868" d="M41 373h213q6 -94 53.5 -150.5t138.5 -56.5q72 0 118 42t46 114q0 48 -28.5 82t-74.5 55t-101 39.5t-110 43.5t-101 59.5t-74.5 95t-28.5 141.5q0 142 106.5 234.5t250.5 92.5q148 0 246.5 -92.5t101.5 -238.5h-213q-8 63 -45.5 100t-100.5 37q-56 0 -94.5 -33t-38.5 -88 q0 -15 3.5 -28t7 -23t13.5 -20.5t15 -16.5t20 -14t21 -11.5t24.5 -10.5t23 -8.5t25 -8t23.5 -7.5q60 -18 107.5 -39t93 -52t75.5 -69t48 -91t18 -117q0 -164 -107.5 -263.5t-273.5 -99.5q-66 0 -145 27q-125 44 -190.5 142t-65.5 233z" />
<glyph unicode="t" horiz-adv-x="567" d="M8 940v195h154v381h213v-381h186v-195h-186v-940h-213v940h-154z" />
<glyph unicode="u" horiz-adv-x="1277" d="M135 520v615h213v-615q0 -80 13.5 -141t44 -110.5t87.5 -76t138 -26.5q79 0 137.5 28t92.5 78.5t50.5 113.5t16.5 140v609h213v-1135h-195v123h-4q-46 -77 -139 -114.5t-195 -37.5q-193 0 -323 113q-150 131 -150 436z" />
<glyph unicode="v" horiz-adv-x="1099" d="M27 1135h227l297 -811h4l291 811h227l-446 -1135h-150z" />
<glyph unicode="w" horiz-adv-x="1628" d="M27 1135h227l252 -738h4l235 738h140l235 -738h4l250 738h228l-420 -1135h-119l-246 764h-4l-246 -764h-116z" />
<glyph unicode="x" horiz-adv-x="1060" d="M4 0l393 582l-379 553h258l250 -373l248 373h258l-370 -553l395 -582h-250l-281 403l-274 -403h-248z" />
<glyph unicode="y" horiz-adv-x="1175" d="M20 1135h230l334 -881l342 881h229l-627 -1514h-221l166 402z" />
<glyph unicode="z" horiz-adv-x="833" d="M6 0v166l545 774h-492v195h725v-207l-514 -733h557v-195h-821z" />
<glyph unicode="{" horiz-adv-x="681" d="M29 473v176q75 0 131.5 48t56.5 122v420q0 121 80 199t201 78h133v-162h-90q-111 0 -111 -150v-413q0 -92 -56 -154.5t-147 -71.5v-6q100 -13 151.5 -75.5t51.5 -166.5v-411q0 -150 111 -150h90v-162h-133q-121 0 -201 78t-80 199v418q0 78 -55 131t-133 53z" />
<glyph unicode="|" d="M453 -205v1721h231v-1721h-231z" />
<glyph unicode="}" horiz-adv-x="681" d="M51 -244h90q111 0 111 150v413q0 92 56 154.5t147 71.5v6q-100 13 -151.5 75.5t-51.5 166.5v411q0 150 -111 150h-90v162h133q121 0 201 -78t80 -199v-418q0 -78 55 -131t133 -53v-176q-75 0 -131.5 -48t-56.5 -122v-420q0 -121 -80 -199t-201 -78h-133v162z" />
<glyph unicode="~" horiz-adv-x="1331" d="M131 588q45 59 83.5 96.5t99 64.5t132.5 27q118 0 234 -63q116 -68 199 -68q56 0 99 38t83 99l141 -161q-67 -95 -141 -142t-176 -47q-122 0 -236 66q-110 65 -194 65q-96 0 -183 -137z" />
<glyph unicode="&#xa1;" horiz-adv-x="567" d="M176 -379v1137h213v-1137h-213zM176 887v250h213v-250h-213z" />
<glyph unicode="&#xa2;" d="M78 836q0 187 111.5 318t295.5 165v197h195v-197q138 -21 235.5 -106.5t143.5 -219.5h-244q-29 61 -92 91t-137 30q-125 0 -210 -82t-85 -207q0 -122 86 -203t209 -81q153 0 227 112h240q-43 -123 -141.5 -202.5t-231.5 -108.5v-201h-195v201q-186 42 -296.5 173.5 t-110.5 320.5z" />
<glyph unicode="&#xa3;" d="M18 670v194h82q-47 77 -47 185q0 220 140.5 357.5t361.5 137.5q186 0 323.5 -113.5t174.5 -295.5h-232q-66 215 -272 215q-126 0 -204.5 -86.5t-78.5 -214.5q0 -112 76 -185h449v-194h-287q108 -95 108 -297q0 -82 -26 -178h67q116 0 184 66t68 181q0 54 -28 115h229 q12 -55 12 -113q0 -208 -127.5 -326t-337.5 -118h-567v195h270q43 79 43 182q0 190 -151 293h-230z" />
<glyph unicode="&#xa4;" horiz-adv-x="1208" d="M35 1155l112 113l170 -170q129 94 287 94q159 0 283 -92l170 166l110 -111l-166 -166q97 -137 97 -291q0 -149 -94 -280l165 -166l-110 -113l-162 164q-135 -96 -293 -96t-293 96l-164 -162l-110 109l168 168q-96 129 -96 280q0 161 98 289zM311 698q0 -118 87 -204 t206 -86q120 0 205.5 86t85.5 206q0 121 -85 207t-206 86t-207 -86.5t-86 -208.5z" />
<glyph unicode="&#xa5;" d="M0 1516h231l336 -611l338 611h232l-295 -521h254v-176h-342l-80 -145v-88h422v-176h-422v-410h-213v410h-420v176h420v88l-80 145h-340v176h252z" />
<glyph unicode="&#xa6;" d="M453 -205v688h231v-688h-231zM453 827v689h231v-689h-231z" />
<glyph unicode="&#xa7;" horiz-adv-x="1173" d="M84 655q0 206 190 318q-40 56 -59.5 105t-19.5 110q0 75 36 149q50 102 144 154.5t213 52.5q178 0 286.5 -103.5t129.5 -283.5h-213q-14 86 -62.5 135t-132.5 49q-82 0 -135 -43.5t-53 -123.5q0 -25 9.5 -47t21 -37t34.5 -31t37 -24.5t41 -22.5l278 -146 q61 -32 100.5 -58t81.5 -65.5t62.5 -90.5t20.5 -113q0 -194 -185 -316q121 -106 121 -264q0 -123 -60 -218.5t-160.5 -145.5t-221.5 -50q-194 0 -318 123.5t-133 319.5h213q8 -111 71 -175.5t173 -64.5q97 0 160 55t63 150q0 40 -15 72.5t-45.5 58t-56 41.5t-67.5 37 q-52 26 -157 81t-157 81q-78 41 -126 80.5t-78.5 102.5t-30.5 148zM297 674q0 -51 28.5 -94.5t75.5 -67.5l367 -188q58 49 85.5 88.5t27.5 99.5q0 62 -35 98t-103 70l-342 174q-46 -31 -75 -78.5t-29 -101.5z" />
<glyph unicode="&#xa8;" d="M301 1298v250h213v-250h-213zM618 1298v250h213v-250h-213z" />
<glyph unicode="&#xa9;" horiz-adv-x="1638" d="M37 758q0 160 62 305t167.5 249.5t250.5 166t304 61.5t304 -62t249 -167t166 -250t62 -303q0 -212 -105 -392t-285 -285.5t-391 -105.5q-159 0 -304 62t-250.5 166.5t-167.5 249.5t-62 305zM201 758q0 -127 48.5 -243t130.5 -200t197 -134t242 -50q170 0 312.5 84.5 t224.5 228.5t82 314q0 127 -48.5 242.5t-131 199.5t-197.5 134t-242 50q-171 0 -313.5 -84.5t-223.5 -228t-81 -313.5zM391 760q0 201 120 334t320 133q145 0 261 -86t133 -226h-154q-53 166 -240 166q-129 0 -207.5 -94.5t-78.5 -226.5q0 -137 76 -229.5t210 -92.5 q189 0 240 166h154q-17 -140 -133 -225.5t-261 -85.5q-200 0 -320 133t-120 334z" />
<glyph unicode="&#xaa;" horiz-adv-x="849" d="M53 1210q0 145 95.5 239.5t240.5 94.5q52 0 101.5 -23.5t76.5 -64.5h4v72h164v-631h-164v72h-4q-23 -40 -77 -64t-105 -24q-141 0 -236.5 94t-95.5 235zM217 1210q0 -71 50 -123.5t120 -52.5q81 0 133.5 48t52.5 130q0 77 -53.5 128t-130.5 51q-75 0 -123.5 -53 t-48.5 -128z" />
<glyph unicode="&#xab;" horiz-adv-x="757" d="M68 483v211l280 279v-232l-153 -151l153 -152v-229zM410 483v211l280 279v-232l-153 -151l153 -152v-229z" />
<glyph unicode="&#xac;" horiz-adv-x="1228" d="M98 635v213h1032v-627h-212v414h-820z" />
<glyph unicode="&#xad;" horiz-adv-x="573" d="M0 485v213h573v-213h-573z" />
<glyph unicode="&#xae;" horiz-adv-x="1638" d="M37 758q0 160 62 305t167.5 249.5t250.5 166t304 61.5t304 -62t249 -167t166 -250t62 -303q0 -212 -105 -392t-285 -285.5t-391 -105.5q-159 0 -304 62t-250.5 166.5t-167.5 249.5t-62 305zM201 758q0 -127 48.5 -243t130.5 -200t197 -134t242 -50q170 0 312.5 84.5 t224.5 228.5t82 314q0 127 -48.5 242.5t-131 199.5t-197.5 134t-242 50q-171 0 -313.5 -84.5t-223.5 -228t-81 -313.5zM485 303v895h385q62 0 115 -12.5t97.5 -40t70 -76.5t25.5 -115q0 -85 -42 -141t-124 -76v-4q86 -24 115 -74.5t34 -148.5q0 -7 0.5 -37.5t1.5 -47 t4 -42.5t8.5 -45.5t14.5 -34.5h-154q-8 12 -13 27.5t-7.5 36t-3.5 34t-1.5 38t-0.5 30.5q-2 57 -10 91t-29 58.5t-56.5 34t-93.5 9.5h-182v-359h-154zM639 805h197q188 0 188 143q0 15 -10 35q-30 70 -170 70h-205v-248z" />
<glyph unicode="&#xaf;" d="M201 1335v170h733v-170h-733z" />
<glyph unicode="&#xb0;" horiz-adv-x="819" d="M117 1165q0 123 85 208t208 85t207.5 -85t84.5 -208t-84.5 -208t-207.5 -85t-208 85t-85 208zM244 1167q0 -69 49 -121.5t117 -52.5t116.5 52.5t48.5 121.5q0 68 -48.5 119t-116.5 51t-117 -51t-49 -119z" />
<glyph unicode="&#xb1;" horiz-adv-x="1228" d="M98 0v213h1032v-213h-1032zM98 680v213h410v332h213v-332h409v-213h-409v-332h-213v332h-410z" />
<glyph unicode="&#xb2;" horiz-adv-x="718" d="M51 1454v41q0 123 87 211t210 88q125 0 213 -87t88 -212q0 -74 -30.5 -131t-90.5 -117l-225 -227h348v-156h-594v127l349 352q79 79 79 152q0 59 -36.5 101t-94.5 42q-62 0 -100.5 -42t-38.5 -105v-37h-164z" />
<glyph unicode="&#xb3;" horiz-adv-x="686" d="M33 1143h164q5 -67 43.5 -105.5t103.5 -38.5q61 0 100 39t39 101q0 64 -41.5 102.5t-105.5 38.5h-53v156h51q50 0 79 28.5t29 77.5q0 44 -27 70t-71 26t-69 -28t-27 -74h-164q0 109 75.5 183.5t184.5 74.5q110 0 186 -77t76 -187q0 -55 -19.5 -92.5t-62.5 -77.5 q65 -38 94 -91.5t29 -129.5q0 -125 -92 -210t-219 -85t-215 86t-88 213z" />
<glyph unicode="&#xb4;" d="M324 1386l456 263l90 -166l-460 -250z" />
<glyph unicode="&#xb5;" horiz-adv-x="1277" d="M152 -379v1514h213v-553q0 -204 47 -291q32 -59 89.5 -92t125.5 -33q286 0 286 438v531h213v-1135h-213v123h-4q-49 -80 -117 -116t-165 -36q-73 0 -143.5 27.5t-114.5 79.5h-4v-457h-213z" />
<glyph unicode="&#xb6;" horiz-adv-x="1306" d="M4 1061q0 88 27 155t71.5 107.5t109.5 66t133 35t151 9.5h600v-1825h-213v1661h-217v-1661h-213v1093q-89 0 -167 20.5t-142.5 62t-102 112.5t-37.5 164z" />
<glyph unicode="&#xb7;" horiz-adv-x="567" d="M190 410v221h187v-221h-187z" />
<glyph unicode="&#xb8;" d="M377 -299h110q8 -28 29.5 -45.5t50.5 -17.5q37 0 59.5 25t22.5 63q0 34 -23 56.5t-57 22.5q-43 0 -67 -38l-94 43l90 190h120l-55 -113q18 7 35 7q71 0 116.5 -48.5t45.5 -119.5q0 -84 -54.5 -135.5t-138.5 -51.5q-76 0 -128 43t-62 119z" />
<glyph unicode="&#xb9;" horiz-adv-x="503" d="M68 1618v156h290v-910h-163v754h-127z" />
<glyph unicode="&#xba;" horiz-adv-x="788" d="M53 1217q0 138 101 232.5t239 94.5q139 0 239.5 -96t100.5 -234q0 -137 -101 -235t-239 -98q-139 0 -239.5 98.5t-100.5 237.5zM217 1212q0 -73 51.5 -125.5t124.5 -52.5t124.5 53t51.5 127t-51.5 125.5t-124.5 51.5q-74 0 -125 -52.5t-51 -126.5z" />
<glyph unicode="&#xbb;" horiz-adv-x="757" d="M68 209v229l153 152l-153 151v232l280 -279v-211zM410 209v229l153 152l-153 151v232l280 -279v-211z" />
<glyph unicode="&#xbc;" horiz-adv-x="1433" d="M33 1360v156h291v-910h-164v754h-127zM260 0l682 1516h150l-682 -1516h-150zM737 141v142l426 626h140v-628h98v-140h-98v-141h-144v141h-422zM907 281h252v389h-4z" />
<glyph unicode="&#xbd;" horiz-adv-x="1462" d="M33 1360v156h291v-910h-164v754h-127zM211 0l682 1516h149l-682 -1516h-149zM829 590v41q0 123 87 211t210 88q125 0 213 -87t88 -212q0 -74 -30 -131t-90 -117l-226 -227h349v-156h-594v127l348 352q80 80 80 152q0 59 -36.5 101t-94.5 42q-62 0 -101 -42t-39 -105v-37 h-164z" />
<glyph unicode="&#xbe;" horiz-adv-x="1599" d="M33 885h164q5 -67 43.5 -105.5t103.5 -38.5q61 0 100 39t39 101q0 64 -41.5 102.5t-105.5 38.5h-53v156h51q50 0 79 28.5t29 77.5q0 44 -27 70t-71 26t-69 -28t-27 -74h-164q0 109 75.5 183.5t184.5 74.5q110 0 186 -77t76 -187q0 -55 -19.5 -92.5t-62.5 -77.5 q65 -38 94 -91.5t29 -129.5q0 -125 -92 -210t-219 -85t-215 86t-88 213zM426 0l682 1516h149l-682 -1516h-149zM903 141v142l426 626h139v-628h99v-140h-99v-141h-143v141h-422zM1073 281h252v389h-4z" />
<glyph unicode="&#xbf;" horiz-adv-x="1060" d="M82 51q0 64 10.5 112.5t36.5 91.5t55 75.5t80 79.5q90 84 125.5 152t50.5 186h213q-3 -138 -55.5 -243t-157.5 -212l-33.5 -33.5t-35.5 -36t-28.5 -34t-26 -40t-14.5 -41t-7 -49.5q0 -103 69.5 -177.5t172.5 -74.5q61 0 114.5 29.5t87.5 81.5t43 135h213 q-6 -150 -79.5 -262t-208.5 -166q-91 -33 -172 -33q-123 0 -227.5 62.5t-165 168.5t-60.5 228zM440 887v250h213v-250h-213z" />
<glyph unicode="&#xc0;" horiz-adv-x="1400" d="M27 0l575 1516h199l575 -1516h-235l-168 446h-545l-168 -446h-233zM387 1843l86 154l461 -252l-90 -164zM506 649h391l-192 580h-5z" />
<glyph unicode="&#xc1;" horiz-adv-x="1400" d="M27 0l575 1516h199l575 -1516h-235l-168 446h-545l-168 -446h-233zM469 1735l457 262l90 -166l-461 -250zM506 649h391l-192 580h-5z" />
<glyph unicode="&#xc2;" horiz-adv-x="1400" d="M27 0l575 1516h199l575 -1516h-235l-168 446h-545l-168 -446h-233zM313 1624l285 277h205l287 -277h-244l-141 141l-148 -141h-244zM506 649h391l-192 580h-5z" />
<glyph unicode="&#xc3;" horiz-adv-x="1400" d="M27 0l575 1516h199l575 -1516h-235l-168 446h-545l-168 -446h-233zM326 1784q123 80 211 80q39 0 144.5 -28t143.5 -28q17 0 33.5 3t36 11t30 12.5t34.5 16.5l30 15l88 -129q-117 -95 -223 -95q-40 0 -146 27t-143 27q-58 0 -143 -45zM506 649h391l-192 580h-5z" />
<glyph unicode="&#xc4;" horiz-adv-x="1400" d="M27 0l575 1516h199l575 -1516h-235l-168 446h-545l-168 -446h-233zM436 1632v250h213v-250h-213zM506 649h391l-192 580h-5zM754 1632v250h213v-250h-213z" />
<glyph unicode="&#xc5;" horiz-adv-x="1400" d="M27 0l575 1516h199l575 -1516h-235l-168 446h-545l-168 -446h-233zM475 1784q0 95 66 161t161 66q93 0 159.5 -67t66.5 -160t-67.5 -159t-160.5 -66q-92 0 -158.5 66.5t-66.5 158.5zM506 649h391l-192 580h-5zM592 1786q0 -44 32 -75.5t76 -31.5t76.5 31.5t32.5 75.5 q0 45 -32.5 76.5t-78.5 31.5q-44 0 -75 -32t-31 -76z" />
<glyph unicode="&#xc6;" horiz-adv-x="1904" d="M0 0l1018 1516h756v-203h-517v-447h517v-202h-517v-461h517v-203h-738v420h-499l-277 -420h-260zM682 623h354v565h-6z" />
<glyph unicode="&#xc7;" horiz-adv-x="1601" d="M78 764q0 160 61.5 304.5t166 248.5t249 165.5t303.5 61.5q122 0 243.5 -38.5t219.5 -108.5q77 -55 130.5 -118t102.5 -151h-266q-91 104 -194 158.5t-232 54.5q-156 0 -286 -78.5t-203.5 -211.5t-73.5 -289q0 -152 73 -287t203 -218t283 -83q118 0 227 54t187 147h272 q-109 -192 -291 -298t-403 -106l-35 -110q18 2 41 2q72 0 120 -50t48 -122q0 -85 -57.5 -140t-143.5 -55q-76 0 -129.5 47t-60.5 121h108q6 -30 29 -46.5t55 -16.5q37 0 61.5 23t24.5 61q0 36 -25 57.5t-61 21.5q-41 0 -69 -28l-70 65l59 181q-189 27 -342.5 140t-239 282 t-85.5 360z" />
<glyph unicode="&#xc8;" horiz-adv-x="1064" d="M133 0v1516h817v-203h-596v-447h596v-202h-596v-461h596v-203h-817zM221 1845l90 164l457 -262l-86 -154z" />
<glyph unicode="&#xc9;" horiz-adv-x="1064" d="M133 0v1516h817v-203h-596v-447h596v-202h-596v-461h596v-203h-817zM301 1745l457 262l90 -166l-461 -250z" />
<glyph unicode="&#xca;" horiz-adv-x="1064" d="M133 0v1516h817v-203h-596v-447h596v-202h-596v-461h596v-203h-817zM145 1624l285 277h205l287 -277h-244l-141 141l-148 -141h-244z" />
<glyph unicode="&#xcb;" horiz-adv-x="1064" d="M133 0v1516h817v-203h-596v-447h596v-202h-596v-461h596v-203h-817zM268 1642v250h213v-250h-213zM586 1642v250h213v-250h-213z" />
<glyph unicode="&#xcc;" horiz-adv-x="526" d="M-131 1845l90 164l457 -262l-86 -154zM154 0v1516h221v-1516h-221z" />
<glyph unicode="&#xcd;" horiz-adv-x="526" d="M113 1745l456 262l90 -166l-460 -250zM154 0v1516h221v-1516h-221z" />
<glyph unicode="&#xce;" horiz-adv-x="526" d="M-125 1624l285 277h205l286 -277h-243l-142 141l-147 -141h-244zM154 0v1516h221v-1516h-221z" />
<glyph unicode="&#xcf;" horiz-adv-x="526" d="M-2 1642v250h213v-250h-213zM154 0v1516h221v-1516h-221zM315 1642v250h213v-250h-213z" />
<glyph unicode="&#xd0;" horiz-adv-x="1540" d="M45 659v203h129v654h496q193 0 352.5 -67t261.5 -212q74 -103 115 -229.5t41 -253.5q0 -142 -50.5 -293.5t-140.5 -241.5q-222 -219 -587 -219h-488v659h-129zM395 203h269q256 0 405.5 147t149.5 404q0 116 -48 231q-65 161 -196 244.5t-307 83.5h-273v-451h396v-203 h-396v-456z" />
<glyph unicode="&#xd1;" horiz-adv-x="1511" d="M154 0v1516h241l738 -1154h4v1154h221v-1516h-230l-749 1171h-4v-1171h-221zM381 1784q123 80 211 80q39 0 145 -28t144 -28q17 0 33.5 3t35.5 10.5t30.5 12.5t34 17t29.5 15l89 -129q-117 -95 -224 -95q-40 0 -145.5 27t-142.5 27q-59 0 -144 -45z" />
<glyph unicode="&#xd2;" horiz-adv-x="1732" d="M78 758q0 215 105.5 396t286.5 285.5t396 104.5q217 0 398.5 -105t286 -286.5t104.5 -398.5q0 -212 -106.5 -392.5t-288 -285.5t-394.5 -105q-160 0 -306 62.5t-251.5 168t-168 251t-62.5 305.5zM299 758q0 -121 53 -246q71 -160 205.5 -249t308.5 -89q186 0 325 100 t204 275q39 98 39 203q0 160 -72.5 294.5t-203.5 214.5t-292 80q-176 0 -310.5 -90t-203.5 -252q-53 -122 -53 -241zM555 1845l90 164l457 -262l-86 -154z" />
<glyph unicode="&#xd3;" horiz-adv-x="1732" d="M78 758q0 215 105.5 396t286.5 285.5t396 104.5q217 0 398.5 -105t286 -286.5t104.5 -398.5q0 -212 -106.5 -392.5t-288 -285.5t-394.5 -105q-160 0 -306 62.5t-251.5 168t-168 251t-62.5 305.5zM299 758q0 -121 53 -246q71 -160 205.5 -249t308.5 -89q186 0 325 100 t204 275q39 98 39 203q0 160 -72.5 294.5t-203.5 214.5t-292 80q-176 0 -310.5 -90t-203.5 -252q-53 -122 -53 -241zM635 1745l457 262l90 -166l-461 -250z" />
<glyph unicode="&#xd4;" horiz-adv-x="1732" d="M78 758q0 215 105.5 396t286.5 285.5t396 104.5q217 0 398.5 -105t286 -286.5t104.5 -398.5q0 -212 -106.5 -392.5t-288 -285.5t-394.5 -105q-160 0 -306 62.5t-251.5 168t-168 251t-62.5 305.5zM299 758q0 -121 53 -246q71 -160 205.5 -249t308.5 -89q186 0 325 100 t204 275q39 98 39 203q0 160 -72.5 294.5t-203.5 214.5t-292 80q-176 0 -310.5 -90t-203.5 -252q-53 -122 -53 -241zM479 1624l285 277h205l286 -277h-243l-142 141l-147 -141h-244z" />
<glyph unicode="&#xd5;" horiz-adv-x="1732" d="M78 758q0 215 105.5 396t286.5 285.5t396 104.5q217 0 398.5 -105t286 -286.5t104.5 -398.5q0 -212 -106.5 -392.5t-288 -285.5t-394.5 -105q-160 0 -306 62.5t-251.5 168t-168 251t-62.5 305.5zM299 758q0 -121 53 -246q71 -160 205.5 -249t308.5 -89q186 0 325 100 t204 275q39 98 39 203q0 160 -72.5 294.5t-203.5 214.5t-292 80q-176 0 -310.5 -90t-203.5 -252q-53 -122 -53 -241zM492 1784q123 80 210 80q39 0 145 -28t144 -28q17 0 33.5 3t36 11t30 12.5t34.5 16.5l30 15l88 -129q-117 -95 -223 -95q-40 0 -146 27t-143 27 q-58 0 -143 -45z" />
<glyph unicode="&#xd6;" horiz-adv-x="1732" d="M78 758q0 215 105.5 396t286.5 285.5t396 104.5q217 0 398.5 -105t286 -286.5t104.5 -398.5q0 -212 -106.5 -392.5t-288 -285.5t-394.5 -105q-160 0 -306 62.5t-251.5 168t-168 251t-62.5 305.5zM299 758q0 -121 53 -246q71 -160 205.5 -249t308.5 -89q186 0 325 100 t204 275q39 98 39 203q0 160 -72.5 294.5t-203.5 214.5t-292 80q-176 0 -310.5 -90t-203.5 -252q-53 -122 -53 -241zM602 1642v250h213v-250h-213zM920 1642v250h213v-250h-213z" />
<glyph unicode="&#xd7;" horiz-adv-x="1228" d="M125 176l342 342l-342 342l147 148l342 -342l342 342l148 -148l-344 -342l344 -342l-148 -147l-342 344l-342 -344z" />
<glyph unicode="&#xd8;" horiz-adv-x="1732" d="M78 758q0 161 61.5 307t166.5 251t251 166.5t307 61.5q218 0 385 -96l142 194l170 -118l-146 -199q113 -102 176.5 -256t63.5 -311q0 -160 -62.5 -305.5t-168.5 -251t-252 -168t-306 -62.5q-206 0 -374 92l-144 -196l-164 115l146 200q-122 117 -187 264t-65 312z M299 758q0 -109 41.5 -214t114.5 -190l673 926q-113 61 -260 61q-179 0 -314 -91.5t-206 -256.5q-49 -117 -49 -235zM616 227q103 -53 250 -53q160 0 290.5 78.5t204 212.5t73.5 293q0 214 -146 393z" />
<glyph unicode="&#xd9;" horiz-adv-x="1316" d="M150 489v1027h221v-1020q0 -141 75 -231.5t211 -90.5t211.5 90.5t75.5 231.5v1020h221v-1027q0 -254 -153 -389q-71 -63 -163.5 -96t-191.5 -33q-210 0 -354 129q-153 135 -153 389zM295 1845l90 164l457 -262l-86 -154z" />
<glyph unicode="&#xda;" horiz-adv-x="1316" d="M150 489v1027h221v-1020q0 -141 75 -231.5t211 -90.5t211.5 90.5t75.5 231.5v1020h221v-1027q0 -254 -153 -389q-71 -63 -163.5 -96t-191.5 -33q-210 0 -354 129q-153 135 -153 389zM477 1745l457 262l90 -166l-461 -250z" />
<glyph unicode="&#xdb;" horiz-adv-x="1316" d="M150 489v1027h221v-1020q0 -141 75 -231.5t211 -90.5t211.5 90.5t75.5 231.5v1020h221v-1027q0 -254 -153 -389q-71 -63 -163.5 -96t-191.5 -33q-210 0 -354 129q-153 135 -153 389zM270 1624l285 277h205l287 -277h-244l-141 141l-148 -141h-244z" />
<glyph unicode="&#xdc;" horiz-adv-x="1316" d="M150 489v1027h221v-1020q0 -141 75 -231.5t211 -90.5t211.5 90.5t75.5 231.5v1020h221v-1027q0 -254 -153 -389q-71 -63 -163.5 -96t-191.5 -33q-210 0 -354 129q-153 135 -153 389zM393 1642v250h213v-250h-213zM711 1642v250h213v-250h-213z" />
<glyph unicode="&#xdd;" horiz-adv-x="1214" d="M27 1516h247l334 -711l332 711h246l-467 -969v-547h-221v547zM426 1745l457 262l90 -166l-461 -250z" />
<glyph unicode="&#xde;" horiz-adv-x="1144" d="M133 0v1516h221v-279h217q91 0 170.5 -16.5t147 -52t115.5 -88.5t75 -130t27 -172t-27 -172t-75 -130t-115.5 -88.5t-147 -52t-170.5 -16.5h-217v-319h-221zM354 522h217q65 0 120 14t99.5 43.5t69.5 80.5t25 118t-25 118t-69.5 80.5t-99.5 43.5t-120 14h-217v-512z" />
<glyph unicode="&#xdf;" horiz-adv-x="1310" d="M135 0v1057q0 157 67.5 275.5t205.5 176.5q84 35 172 35q185 0 318.5 -132t133.5 -316q0 -155 -119 -246q143 -34 231.5 -144.5t88.5 -256.5q0 -202 -135 -340t-336 -138q-149 0 -258 76q-66 45 -99.5 89t-54.5 118h-4v-254h-211zM348 397h172q16 -100 83 -165.5 t167 -65.5q107 0 178.5 77t71.5 185q0 127 -89.5 190.5t-223.5 63.5h-148v188q119 3 189.5 63.5t70.5 174.5q0 101 -67.5 171.5t-167.5 70.5q-120 0 -178 -80t-58 -203v-670z" />
<glyph unicode="&#xe0;" horiz-adv-x="1419" d="M78 563q0 127 46 239t125.5 191.5t191.5 125.5t239 46q119 0 221.5 -48.5t163.5 -141.5h4v160h213v-1135h-213v176h-4q-58 -100 -161 -152.5t-224 -52.5q-168 0 -306 76t-217 212t-79 304zM291 565q0 -162 113 -280.5t274 -118.5q165 0 280 117t115 282q0 172 -111 289 t-282 117q-166 0 -277.5 -119t-111.5 -287zM397 1505l90 164l457 -262l-86 -154z" />
<glyph unicode="&#xe1;" horiz-adv-x="1419" d="M78 563q0 127 46 239t125.5 191.5t191.5 125.5t239 46q119 0 221.5 -48.5t163.5 -141.5h4v160h213v-1135h-213v176h-4q-58 -100 -161 -152.5t-224 -52.5q-168 0 -306 76t-217 212t-79 304zM291 565q0 -162 113 -280.5t274 -118.5q165 0 280 117t115 282q0 172 -111 289 t-282 117q-166 0 -277.5 -119t-111.5 -287zM477 1405l457 262l90 -166l-461 -250z" />
<glyph unicode="&#xe2;" horiz-adv-x="1419" d="M78 563q0 127 46 239t125.5 191.5t191.5 125.5t239 46q119 0 221.5 -48.5t163.5 -141.5h4v160h213v-1135h-213v176h-4q-58 -100 -161 -152.5t-224 -52.5q-168 0 -306 76t-217 212t-79 304zM291 565q0 -162 113 -280.5t274 -118.5q165 0 280 117t115 282q0 172 -111 289 t-282 117q-166 0 -277.5 -119t-111.5 -287zM322 1294l284 277h205l287 -277h-244l-141 142l-148 -142h-243z" />
<glyph unicode="&#xe3;" horiz-adv-x="1419" d="M78 563q0 127 46 239t125.5 191.5t191.5 125.5t239 46q119 0 221.5 -48.5t163.5 -141.5h4v160h213v-1135h-213v176h-4q-58 -100 -161 -152.5t-224 -52.5q-168 0 -306 76t-217 212t-79 304zM291 565q0 -162 113 -280.5t274 -118.5q165 0 280 117t115 282q0 172 -111 289 t-282 117q-166 0 -277.5 -119t-111.5 -287zM334 1444q123 80 211 80q39 0 145 -28t144 -28q17 0 33.5 3t35.5 10.5t30.5 12.5t34 17t29.5 15l88 -129q-116 -94 -223 -94q-40 0 -146 26.5t-143 26.5q-58 0 -143 -45z" />
<glyph unicode="&#xe4;" horiz-adv-x="1419" d="M78 563q0 127 46 239t125.5 191.5t191.5 125.5t239 46q119 0 221.5 -48.5t163.5 -141.5h4v160h213v-1135h-213v176h-4q-58 -100 -161 -152.5t-224 -52.5q-168 0 -306 76t-217 212t-79 304zM291 565q0 -162 113 -280.5t274 -118.5q165 0 280 117t115 282q0 172 -111 289 t-282 117q-166 0 -277.5 -119t-111.5 -287zM444 1303v249h213v-249h-213zM762 1303v249h213v-249h-213z" />
<glyph unicode="&#xe5;" horiz-adv-x="1419" d="M78 563q0 127 46 239t125.5 191.5t191.5 125.5t239 46q119 0 221.5 -48.5t163.5 -141.5h4v160h213v-1135h-213v176h-4q-58 -100 -161 -152.5t-224 -52.5q-168 0 -306 76t-217 212t-79 304zM291 565q0 -162 113 -280.5t274 -118.5q165 0 280 117t115 282q0 172 -111 289 t-282 117q-166 0 -277.5 -119t-111.5 -287zM483 1475q0 95 66.5 161t161.5 66q93 0 159 -67t66 -160t-67 -159.5t-160 -66.5q-92 0 -159 67t-67 159zM600 1477q0 -44 32.5 -75.5t76.5 -31.5t76 31.5t32 75.5q0 46 -32 77t-78 31q-44 0 -75.5 -32t-31.5 -76z" />
<glyph unicode="&#xe6;" horiz-adv-x="2316" d="M78 578q0 165 80 300t217.5 211t302.5 76q244 0 401 -164h4v134h195v-134h4q62 83 166 123.5t219 40.5q118 0 224.5 -48.5t182 -129t120 -189t44.5 -225.5q0 -15 -1 -30.5t-2.5 -35t-2.5 -30.5h-946q25 -134 130.5 -222.5t240.5 -88.5q102 0 191.5 52t136.5 142h219 q-62 -173 -211 -281t-332 -108q-226 0 -379 162h-4v-133h-195v133q-92 -84 -184 -123t-213 -39q-127 0 -240 47t-193.5 127.5t-127.5 193t-47 239.5zM291 575q0 -171 107.5 -290t277.5 -119t283.5 117.5t113.5 287.5q0 171 -113 285.5t-284 114.5q-167 0 -276 -113.5 t-109 -282.5zM1286 625h739q-11 153 -112 249.5t-254 96.5t-256 -96.5t-117 -249.5z" />
<glyph unicode="&#xe7;" horiz-adv-x="1284" d="M78 569q0 164 75 300.5t209.5 216t299.5 79.5q123 0 239 -50.5t202 -144.5t116 -212h-236q-101 213 -319 213q-170 0 -271.5 -115t-101.5 -287q0 -167 101.5 -285t266.5 -118q108 0 193 55t129 154h238q-62 -182 -209.5 -290.5t-337.5 -111.5l-35 -112q18 2 41 2 q72 0 120 -50t48 -122q0 -85 -57.5 -140t-143.5 -55q-76 0 -129.5 47t-60.5 121h108q18 -63 84 -63q37 0 61.5 23t24.5 61q0 36 -25 57.5t-61 21.5q-41 0 -69 -28l-70 65l59 179q-143 20 -255.5 105t-173 212t-60.5 272z" />
<glyph unicode="&#xe8;" horiz-adv-x="1314" d="M80 569q0 121 44.5 231t121.5 190t185.5 127.5t230.5 47.5q118 0 225.5 -46.5t184 -125t122 -186t45.5 -225.5q0 -54 -6 -107h-940q33 -135 134.5 -222t238.5 -87q101 0 189.5 51t133.5 139h213q-65 -174 -212.5 -279.5t-332.5 -105.5q-158 0 -291.5 83t-209.5 220.5 t-76 294.5zM293 639h733q-9 138 -118 235t-249 97t-248.5 -97t-117.5 -235zM346 1505l90 164l457 -262l-86 -154z" />
<glyph unicode="&#xe9;" horiz-adv-x="1314" d="M80 569q0 121 44.5 231t121.5 190t185.5 127.5t230.5 47.5q118 0 225.5 -46.5t184 -125t122 -186t45.5 -225.5q0 -54 -6 -107h-940q33 -135 134.5 -222t238.5 -87q101 0 189.5 51t133.5 139h213q-65 -174 -212.5 -279.5t-332.5 -105.5q-158 0 -291.5 83t-209.5 220.5 t-76 294.5zM293 639h733q-9 138 -118 235t-249 97t-248.5 -97t-117.5 -235zM426 1405l457 262l90 -166l-461 -250z" />
<glyph unicode="&#xea;" horiz-adv-x="1314" d="M80 569q0 121 44.5 231t121.5 190t185.5 127.5t230.5 47.5q118 0 225.5 -46.5t184 -125t122 -186t45.5 -225.5q0 -54 -6 -107h-940q33 -135 134.5 -222t238.5 -87q101 0 189.5 51t133.5 139h213q-65 -174 -212.5 -279.5t-332.5 -105.5q-158 0 -291.5 83t-209.5 220.5 t-76 294.5zM270 1294l285 277h205l287 -277h-244l-141 142l-148 -142h-244zM293 639h733q-9 138 -118 235t-249 97t-248.5 -97t-117.5 -235z" />
<glyph unicode="&#xeb;" horiz-adv-x="1314" d="M80 569q0 121 44.5 231t121.5 190t185.5 127.5t230.5 47.5q118 0 225.5 -46.5t184 -125t122 -186t45.5 -225.5q0 -54 -6 -107h-940q33 -135 134.5 -222t238.5 -87q101 0 189.5 51t133.5 139h213q-65 -174 -212.5 -279.5t-332.5 -105.5q-158 0 -291.5 83t-209.5 220.5 t-76 294.5zM293 639h733q-9 138 -118 235t-249 97t-248.5 -97t-117.5 -235zM393 1303v249h213v-249h-213zM711 1303v249h213v-249h-213z" />
<glyph unicode="&#xec;" horiz-adv-x="487" d="M-150 1505l91 164l456 -262l-86 -154zM137 0v1135h213v-1135h-213z" />
<glyph unicode="&#xed;" horiz-adv-x="487" d="M94 1405l457 262l90 -166l-461 -250zM137 0v1135h213v-1135h-213z" />
<glyph unicode="&#xee;" horiz-adv-x="487" d="M-143 1294l284 277h205l287 -277h-244l-141 142l-148 -142h-243zM137 0v1135h213v-1135h-213z" />
<glyph unicode="&#xef;" horiz-adv-x="487" d="M-20 1303v249h213v-249h-213zM137 0v1135h213v-1135h-213zM297 1303v249h213v-249h-213z" />
<glyph unicode="&#xf0;" horiz-adv-x="1382" d="M78 573q0 120 49 230t130 189t191.5 126t229.5 47q115 0 207 -57l4 4q-79 93 -227 178l-343 -114l-135 104l299 100q-75 31 -223 84l246 80q97 -23 219 -84l254 84l131 -106l-221 -74q190 -133 302 -333.5t112 -426.5q0 -176 -77.5 -320.5t-218.5 -228.5t-317 -84 q-190 0 -340 98.5t-223 272.5q-49 114 -49 231zM291 569q0 -166 117.5 -284.5t283.5 -118.5q169 0 283.5 120t114.5 289q0 171 -115.5 283.5t-286.5 112.5q-163 0 -280 -119t-117 -283z" />
<glyph unicode="&#xf1;" horiz-adv-x="1277" d="M135 0v1135h199v-121h4q114 151 332 151q126 0 231.5 -50.5t169.5 -151.5q72 -113 72 -291v-672h-213v616q0 77 -13 137.5t-43.5 111.5t-88 78.5t-138.5 27.5q-76 0 -134.5 -28t-94 -77.5t-53 -112t-17.5 -135.5v-618h-213zM264 1444q123 80 211 80q39 0 145 -28t144 -28 q17 0 33.5 3t36 11t30 12.5t34.5 16.5l30 15l88 -129q-116 -94 -223 -94q-41 0 -146 26.5t-143 26.5q-59 0 -144 -45z" />
<glyph unicode="&#xf2;" horiz-adv-x="1382" d="M78 575q0 163 84.5 299.5t224.5 213.5t303 77q123 0 235.5 -46t195.5 -124.5t132.5 -189.5t49.5 -234q0 -120 -48 -230.5t-129 -191.5t-195.5 -129.5t-240.5 -48.5q-165 0 -305.5 80t-223.5 219.5t-83 304.5zM291 569q0 -166 117 -284.5t282 -118.5q166 0 283 119 t117 286q0 166 -117 283t-283 117q-165 0 -282 -118t-117 -284zM379 1505l90 164l457 -262l-86 -154z" />
<glyph unicode="&#xf3;" horiz-adv-x="1382" d="M78 575q0 163 84.5 299.5t224.5 213.5t303 77q123 0 235.5 -46t195.5 -124.5t132.5 -189.5t49.5 -234q0 -120 -48 -230.5t-129 -191.5t-195.5 -129.5t-240.5 -48.5q-165 0 -305.5 80t-223.5 219.5t-83 304.5zM291 569q0 -166 117 -284.5t282 -118.5q166 0 283 119 t117 286q0 166 -117 283t-283 117q-165 0 -282 -118t-117 -284zM459 1405l456 262l91 -166l-461 -250z" />
<glyph unicode="&#xf4;" horiz-adv-x="1382" d="M78 575q0 163 84.5 299.5t224.5 213.5t303 77q123 0 235.5 -46t195.5 -124.5t132.5 -189.5t49.5 -234q0 -120 -48 -230.5t-129 -191.5t-195.5 -129.5t-240.5 -48.5q-165 0 -305.5 80t-223.5 219.5t-83 304.5zM291 569q0 -166 117 -284.5t282 -118.5q166 0 283 119 t117 286q0 166 -117 283t-283 117q-165 0 -282 -118t-117 -284zM303 1294l285 277h205l286 -277h-243l-142 142l-147 -142h-244z" />
<glyph unicode="&#xf5;" horiz-adv-x="1382" d="M78 575q0 163 84.5 299.5t224.5 213.5t303 77q123 0 235.5 -46t195.5 -124.5t132.5 -189.5t49.5 -234q0 -120 -48 -230.5t-129 -191.5t-195.5 -129.5t-240.5 -48.5q-165 0 -305.5 80t-223.5 219.5t-83 304.5zM291 569q0 -166 117 -284.5t282 -118.5q166 0 283 119 t117 286q0 166 -117 283t-283 117q-165 0 -282 -118t-117 -284zM315 1444q123 80 211 80q39 0 145 -28t144 -28q17 0 33.5 3t36 11t30 12.5t34.5 16.5l30 15l88 -129q-116 -94 -223 -94q-40 0 -146 26.5t-143 26.5q-58 0 -143 -45z" />
<glyph unicode="&#xf6;" horiz-adv-x="1382" d="M78 575q0 163 84.5 299.5t224.5 213.5t303 77q123 0 235.5 -46t195.5 -124.5t132.5 -189.5t49.5 -234q0 -120 -48 -230.5t-129 -191.5t-195.5 -129.5t-240.5 -48.5q-165 0 -305.5 80t-223.5 219.5t-83 304.5zM291 569q0 -166 117 -284.5t282 -118.5q166 0 283 119 t117 286q0 166 -117 283t-283 117q-165 0 -282 -118t-117 -284zM426 1303v249h213v-249h-213zM743 1303v249h213v-249h-213z" />
<glyph unicode="&#xf7;" horiz-adv-x="1228" d="M98 412v213h1032v-213h-1032zM508 0v221h213v-221h-213zM508 815v221h213v-221h-213z" />
<glyph unicode="&#xf8;" horiz-adv-x="1382" d="M78 575q0 163 84.5 299.5t224.5 213.5t303 77q138 0 244 -49l104 160l164 -109l-102 -155q95 -82 149 -198.5t54 -240.5q0 -123 -49.5 -235t-132.5 -192.5t-195.5 -127.5t-235.5 -47q-138 0 -244 49l-106 -161l-162 108l105 158q-96 88 -150.5 205.5t-54.5 244.5z M291 569q0 -152 104 -272l428 651q-74 23 -133 23q-165 0 -282 -118t-117 -284zM557 188q71 -22 133 -22q165 0 282.5 118.5t117.5 284.5q0 156 -103 271z" />
<glyph unicode="&#xf9;" horiz-adv-x="1277" d="M135 520v615h213v-615q0 -80 13.5 -141t44 -110.5t87.5 -76t138 -26.5q79 0 137.5 28t92.5 78.5t50.5 113.5t16.5 140v609h213v-1135h-195v123h-4q-46 -77 -139 -114.5t-195 -37.5q-193 0 -323 113q-150 131 -150 436zM276 1505l91 164l456 -262l-86 -154z" />
<glyph unicode="&#xfa;" horiz-adv-x="1277" d="M135 520v615h213v-615q0 -80 13.5 -141t44 -110.5t87.5 -76t138 -26.5q79 0 137.5 28t92.5 78.5t50.5 113.5t16.5 140v609h213v-1135h-195v123h-4q-46 -77 -139 -114.5t-195 -37.5q-193 0 -323 113q-150 131 -150 436zM459 1405l456 262l91 -166l-461 -250z" />
<glyph unicode="&#xfb;" horiz-adv-x="1277" d="M135 520v615h213v-615q0 -80 13.5 -141t44 -110.5t87.5 -76t138 -26.5q79 0 137.5 28t92.5 78.5t50.5 113.5t16.5 140v609h213v-1135h-195v123h-4q-46 -77 -139 -114.5t-195 -37.5q-193 0 -323 113q-150 131 -150 436zM252 1294l285 277h204l287 -277h-244l-141 142 l-147 -142h-244z" />
<glyph unicode="&#xfc;" horiz-adv-x="1277" d="M135 520v615h213v-615q0 -80 13.5 -141t44 -110.5t87.5 -76t138 -26.5q79 0 137.5 28t92.5 78.5t50.5 113.5t16.5 140v609h213v-1135h-195v123h-4q-46 -77 -139 -114.5t-195 -37.5q-193 0 -323 113q-150 131 -150 436zM375 1303v249h213v-249h-213zM692 1303v249h213 v-249h-213z" />
<glyph unicode="&#xfd;" horiz-adv-x="1175" d="M20 1135h230l334 -881l342 881h229l-627 -1514h-221l166 402zM408 1405l456 262l90 -166l-460 -250z" />
<glyph unicode="&#xfe;" horiz-adv-x="1404" d="M137 -379v1895h213v-539h4q59 93 162.5 140.5t222.5 47.5q171 0 306.5 -81.5t208.5 -221t73 -309.5q0 -159 -74.5 -292.5t-206.5 -211.5t-292 -78q-79 0 -152.5 19t-141.5 64t-106 110h-4v-543h-213zM346 569q0 -167 109.5 -285t275.5 -118q165 0 274 117t109 282 q0 107 -51 200t-141 149.5t-197 56.5q-161 0 -270 -119.5t-109 -282.5z" />
<glyph unicode="&#xff;" horiz-adv-x="1175" d="M20 1135h230l334 -881l342 881h229l-627 -1514h-221l166 402zM324 1303v249h213v-249h-213zM641 1303v249h213v-249h-213z" />
<glyph unicode="&#x152;" horiz-adv-x="2240" d="M78 750q0 161 63 315q96 228 289 353.5t442 125.5q162 0 312.5 -64t232.5 -186h4v222h725v-203h-504v-447h504v-202h-504v-461h504v-203h-725v217h-4q-89 -125 -235 -185.5t-314 -60.5q-221 0 -401.5 100.5t-284.5 279t-104 399.5zM299 748q0 -159 72 -290.5 t201.5 -207.5t289.5 -76t289.5 76t201.5 207.5t72 290.5t-70.5 294.5t-200 217t-290.5 81.5q-162 0 -292.5 -81t-201.5 -216.5t-71 -295.5z" />
<glyph unicode="&#x153;" horiz-adv-x="2342" d="M78 571q0 162 82 299t221 216t301 79q160 0 295.5 -68t220.5 -198q75 130 200 198t279 68q166 0 301.5 -78t212 -214.5t76.5 -303.5q0 -30 -4 -92l-960 2q25 -130 134.5 -221.5t241.5 -91.5q109 0 198.5 50t141.5 144h215q-71 -180 -218 -284.5t-337 -104.5 q-150 0 -276 73.5t-203 203.5q-77 -129 -213 -203t-289 -74q-182 0 -329.5 91t-229.5 253q-61 122 -61 256zM291 571q0 -164 115 -284.5t278 -120.5q167 0 285 115.5t118 281.5q0 175 -114.5 291.5t-288.5 116.5q-162 0 -277.5 -118.5t-115.5 -281.5zM1303 625h751 q-15 159 -115.5 251.5t-259.5 92.5q-156 0 -255.5 -93.5t-120.5 -250.5z" />
<glyph unicode="&#x178;" horiz-adv-x="1214" d="M27 1516h247l334 -711l332 711h246l-467 -969v-547h-221v547zM342 1642v250h213v-250h-213zM659 1642v250h213v-250h-213z" />
<glyph unicode="&#x2c6;" d="M178 1292l285 277h205l286 -277h-243l-142 142l-147 -142h-244z" />
<glyph unicode="&#x2dc;" d="M188 1444q123 80 211 80q39 0 145 -28t144 -28q17 0 33.5 3t36 11t30 12.5t34.5 16.5l30 15l88 -129q-116 -94 -223 -94q-41 0 -146 26.5t-143 26.5q-58 0 -143 -45z" />
<glyph unicode="&#x2000;" horiz-adv-x="1005" />
<glyph unicode="&#x2001;" horiz-adv-x="2011" />
<glyph unicode="&#x2002;" horiz-adv-x="1005" />
<glyph unicode="&#x2003;" horiz-adv-x="2011" />
<glyph unicode="&#x2004;" horiz-adv-x="670" />
<glyph unicode="&#x2005;" horiz-adv-x="502" />
<glyph unicode="&#x2006;" horiz-adv-x="335" />
<glyph unicode="&#x2007;" horiz-adv-x="335" />
<glyph unicode="&#x2008;" horiz-adv-x="251" />
<glyph unicode="&#x2009;" horiz-adv-x="402" />
<glyph unicode="&#x200a;" horiz-adv-x="111" />
<glyph unicode="&#x2010;" horiz-adv-x="573" d="M0 485v213h573v-213h-573z" />
<glyph unicode="&#x2011;" horiz-adv-x="573" d="M0 485v213h573v-213h-573z" />
<glyph unicode="&#x2012;" horiz-adv-x="573" d="M0 485v213h573v-213h-573z" />
<glyph unicode="&#x2013;" horiz-adv-x="1024" d="M72 485v213h880v-213h-880z" />
<glyph unicode="&#x2014;" horiz-adv-x="2048" d="M72 485v213h1904v-213h-1904z" />
<glyph unicode="&#x2018;" horiz-adv-x="567" d="M176 1004v227q0 118 50 189.5t163 95.5v-130q-47 -14 -61.5 -45t-14.5 -88h76v-249h-213z" />
<glyph unicode="&#x2019;" horiz-adv-x="567" d="M178 1004v129q47 14 61.5 45t14.5 88h-76v250h213v-228q0 -117 -50 -188.5t-163 -95.5z" />
<glyph unicode="&#x201a;" horiz-adv-x="567" d="M178 0v250h213v-227q0 -118 -50 -189.5t-163 -95.5v129q47 14 61.5 45t14.5 88h-76z" />
<glyph unicode="&#x201c;" horiz-adv-x="870" d="M170 1004v227q0 118 50 189.5t163 95.5v-130q-47 -14 -61.5 -45t-14.5 -88h76v-249h-213zM489 1004v227q0 118 50 189.5t163 95.5v-130q-47 -14 -61 -45t-14 -88h75v-249h-213z" />
<glyph unicode="&#x201d;" horiz-adv-x="870" d="M168 1004v129q47 14 61.5 45t14.5 88h-76v250h213v-228q0 -117 -50 -188.5t-163 -95.5zM487 1004v129q47 14 61.5 45t14.5 88h-76v250h213v-228q0 -117 -50 -188.5t-163 -95.5z" />
<glyph unicode="&#x201e;" horiz-adv-x="870" d="M168 0v250h213v-227q0 -118 -50 -189.5t-163 -95.5v129q47 14 61.5 45t14.5 88h-76zM487 0v250h213v-227q0 -118 -50 -189.5t-163 -95.5v129q47 14 61.5 45t14.5 88h-76z" />
<glyph unicode="&#x2022;" horiz-adv-x="1241" d="M307 772q0 131 92.5 224.5t223.5 93.5q129 0 219 -94.5t90 -223.5q0 -130 -90.5 -223.5t-220.5 -93.5t-222 93.5t-92 223.5z" />
<glyph unicode="&#x2026;" horiz-adv-x="2048" d="M236 0v250h213v-250h-213zM918 0v250h212v-250h-212zM1599 0v250h213v-250h-213z" />
<glyph unicode="&#x202f;" horiz-adv-x="402" />
<glyph unicode="&#x2039;" horiz-adv-x="419" d="M70 483v211l280 279v-232l-153 -151l153 -152v-229z" />
<glyph unicode="&#x203a;" horiz-adv-x="419" d="M70 209v229l153 152l-153 151v232l280 -279v-211z" />
<glyph unicode="&#x205f;" horiz-adv-x="502" />
<glyph unicode="&#x20ac;" d="M2 547l29 155h145q0 22 1 67t1 67h-176l29 155h157q67 557 482 557q182 0 299 -114t139 -297h-199q-20 97 -81.5 157t-155.5 60q-48 0 -87 -15t-66 -44t-46.5 -62t-32.5 -77t-20 -82t-12 -83h491l-29 -155h-475v-76v-58h453l-29 -155h-411q5 -54 14.5 -101t30 -100.5 t48.5 -91.5t73 -63t102 -25q109 0 162.5 60.5t72.5 176.5h203q-15 -209 -130 -320.5t-322 -111.5q-414 0 -476 576h-184z" />
<glyph unicode="&#x2122;" horiz-adv-x="1992" d="M0 1354v162h692v-162h-246v-682h-200v682h-246zM860 672v844h293l203 -533l200 533h293v-844h-200v598h-4l-213 -598h-154l-213 598h-4v-598h-201z" />
<glyph unicode="&#x25fc;" d="M0 0v1137h1137v-1137h-1137z" />
</font>
</defs>
</svg>
